<?xml version="1.0" encoding="UTF-8" standalone="no"?><svg xmlns="http://www.w3.org/2000/svg" xmlns:xlink="http://www.w3.org/1999/xlink" contentStyleType="text/css" height="417px" preserveAspectRatio="none" style="width:3152px;height:417px;background:#FFFFFF;" version="1.1" viewBox="0 0 3152 417" width="3152px" zoomAndPan="magnify"><defs/><g><!--MD5=[14270d418d81d90ef0399f0e3d0d5129]
class Poligono--><g id="elem_Poligono"><rect codeLine="1" fill="#F1F1F1" height="80.9766" id="Poligono" rx="2.5" ry="2.5" style="stroke:#181818;stroke-width:0.5;" width="506" x="7" y="321.1"/><ellipse cx="225.25" cy="337.1" fill="#ADD1B2" rx="11" ry="11" style="stroke:#181818;stroke-width:1.0;"/><path d="M227.7231,343.2431 Q227.1421,343.5419 226.5029,343.6913 Q225.8638,343.8407 225.1582,343.8407 Q222.6514,343.8407 221.3315,342.1889 Q220.0117,340.537 220.0117,337.4159 Q220.0117,334.2865 221.3315,332.6347 Q222.6514,330.9828 225.1582,330.9828 Q225.8638,330.9828 226.5112,331.1322 Q227.1587,331.2816 227.7231,331.5805 L227.7231,334.3031 Q227.0923,333.7221 226.4988,333.4523 Q225.9053,333.1825 225.2744,333.1825 Q223.9297,333.1825 223.2449,334.2492 Q222.5601,335.3158 222.5601,337.4159 Q222.5601,339.5077 223.2449,340.5744 Q223.9297,341.641 225.2744,341.641 Q225.9053,341.641 226.4988,341.3712 Q227.0923,341.1015 227.7231,340.5204 Z " fill="#000000"/><text fill="#000000" font-family="sans-serif" font-size="14" lengthAdjust="spacing" textLength="61" x="245.75" y="342.391">Poligono</text><line style="stroke:#181818;stroke-width:0.5;" x1="8" x2="512" y1="353.1" y2="353.1"/><line style="stroke:#181818;stroke-width:0.5;" x1="8" x2="512" y1="361.1" y2="361.1"/><ellipse cx="18" cy="374.8441" fill="#84BE84" rx="3" ry="3" style="stroke:#038048;stroke-width:1.0;"/><text fill="#000000" font-family="sans-serif" font-size="14" lengthAdjust="spacing" textLength="480" x="27" y="378.6352">Poligono(paiRef:Objeto, _rotulo:char, pontosPoligono:List&lt;Ponto4D&gt;)</text><ellipse cx="18" cy="391.3324" fill="#84BE84" rx="3" ry="3" style="stroke:#038048;stroke-width:1.0;"/><text fill="#000000" font-family="sans-serif" font-size="14" lengthAdjust="spacing" textLength="196" x="27" y="395.1234">«override» ToString() : string</text></g><!--MD5=[3051a6a8f877a755a60c7cfd1e6f410a]
class Objeto--><g id="elem_Objeto"><rect codeLine="1" fill="#F1F1F1" height="245.8594" id="Objeto" rx="2.5" ry="2.5" style="stroke:#181818;stroke-width:0.5;" width="402" x="1127" y="7"/><ellipse cx="1300.75" cy="23" fill="#ADD1B2" rx="11" ry="11" style="stroke:#181818;stroke-width:1.0;"/><path d="M1303.2231,29.1431 Q1302.6421,29.4419 1302.0029,29.5913 Q1301.3638,29.7407 1300.6582,29.7407 Q1298.1514,29.7407 1296.8315,28.0889 Q1295.5117,26.437 1295.5117,23.3159 Q1295.5117,20.1865 1296.8315,18.5347 Q1298.1514,16.8828 1300.6582,16.8828 Q1301.3638,16.8828 1302.0112,17.0322 Q1302.6587,17.1816 1303.2231,17.4805 L1303.2231,20.2031 Q1302.5923,19.6221 1301.9988,19.3523 Q1301.4053,19.0825 1300.7744,19.0825 Q1299.4297,19.0825 1298.7449,20.1492 Q1298.0601,21.2158 1298.0601,23.3159 Q1298.0601,25.4077 1298.7449,26.4744 Q1299.4297,27.541 1300.7744,27.541 Q1301.4053,27.541 1301.9988,27.2712 Q1302.5923,27.0015 1303.2231,26.4204 Z " fill="#000000"/><text fill="#000000" font-family="sans-serif" font-size="14" lengthAdjust="spacing" textLength="46" x="1321.25" y="28.291">Objeto</text><line style="stroke:#181818;stroke-width:0.5;" x1="1128" x2="1528" y1="39" y2="39"/><ellipse cx="1138" cy="52.7441" fill="none" rx="3" ry="3" style="stroke:#038048;stroke-width:1.0;"/><text fill="#000000" font-family="sans-serif" font-size="14" lengthAdjust="spacing" textLength="245" x="1147" y="56.5352">PrimitivaTamanho : float «get» «set»</text><line style="stroke:#181818;stroke-width:0.5;" x1="1128" x2="1528" y1="63.4883" y2="63.4883"/><ellipse cx="1138" cy="77.2324" fill="#84BE84" rx="3" ry="3" style="stroke:#038048;stroke-width:1.0;"/><text fill="#000000" font-family="sans-serif" font-size="14" lengthAdjust="spacing" textLength="91" x="1147" y="81.0234">Bbox() : BBox</text><ellipse cx="1138" cy="93.7207" fill="#84BE84" rx="3" ry="3" style="stroke:#038048;stroke-width:1.0;"/><text fill="#000000" font-family="sans-serif" font-size="14" lengthAdjust="spacing" textLength="376" x="1147" y="97.5117">Objeto(paiRef:Objeto, _rotulo:char, objetoFilho:Objeto)</text><ellipse cx="1138" cy="110.209" fill="#84BE84" rx="3" ry="3" style="stroke:#038048;stroke-width:1.0;"/><text fill="#000000" font-family="sans-serif" font-size="14" lengthAdjust="spacing" textLength="159" x="1147" y="114">ObjetoAtualizar() : void</text><ellipse cx="1138" cy="126.6973" fill="#84BE84" rx="3" ry="3" style="stroke:#038048;stroke-width:1.0;"/><text fill="#000000" font-family="sans-serif" font-size="14" lengthAdjust="spacing" textLength="116" x="1147" y="130.4883">Desenhar() : void</text><ellipse cx="1138" cy="143.1855" fill="#84BE84" rx="3" ry="3" style="stroke:#038048;stroke-width:1.0;"/><text fill="#000000" font-family="sans-serif" font-size="14" lengthAdjust="spacing" textLength="232" x="1147" y="146.9766">FilhoAdicionar(filho:Objeto) : void</text><ellipse cx="1138" cy="159.6738" fill="#84BE84" rx="3" ry="3" style="stroke:#038048;stroke-width:1.0;"/><text fill="#000000" font-family="sans-serif" font-size="14" lengthAdjust="spacing" textLength="176" x="1147" y="163.4648">PontosId(id:int) : Ponto4D</text><ellipse cx="1138" cy="176.1621" fill="#84BE84" rx="3" ry="3" style="stroke:#038048;stroke-width:1.0;"/><text fill="#000000" font-family="sans-serif" font-size="14" lengthAdjust="spacing" textLength="250" x="1147" y="179.9531">PontosAdicionar(pto:Ponto4D) : void</text><ellipse cx="1138" cy="192.6504" fill="#84BE84" rx="3" ry="3" style="stroke:#038048;stroke-width:1.0;"/><text fill="#000000" font-family="sans-serif" font-size="14" lengthAdjust="spacing" textLength="314" x="1147" y="196.4414">PontosAlterar(pto:Ponto4D, posicao:int) : void</text><ellipse cx="1138" cy="209.1387" fill="#84BE84" rx="3" ry="3" style="stroke:#038048;stroke-width:1.0;"/><text fill="#000000" font-family="sans-serif" font-size="14" lengthAdjust="spacing" textLength="260" x="1147" y="212.9297">GrafocenaBusca(_rotulo:char) : Objeto</text><ellipse cx="1138" cy="225.627" fill="#84BE84" rx="3" ry="3" style="stroke:#038048;stroke-width:1.0;"/><text fill="#000000" font-family="sans-serif" font-size="14" lengthAdjust="spacing" textLength="243" x="1147" y="229.418">GrafocenaImprimir(idt:String) : void</text><ellipse cx="1138" cy="242.1152" fill="#84BE84" rx="3" ry="3" style="stroke:#038048;stroke-width:1.0;"/><text fill="#000000" font-family="sans-serif" font-size="14" lengthAdjust="spacing" textLength="120" x="1147" y="245.9063">OnUnload() : void</text></g><!--MD5=[919386ce46a6a5a7c71af782f732246a]
class Mundo--><g id="elem_Mundo"><rect codeLine="1" fill="#F1F1F1" height="64.4883" id="Mundo" rx="2.5" ry="2.5" style="stroke:#181818;stroke-width:0.5;" width="696" x="2449" y="329.34"/><ellipse cx="2768.75" cy="345.34" fill="#ADD1B2" rx="11" ry="11" style="stroke:#181818;stroke-width:1.0;"/><path d="M2771.2231,351.4831 Q2770.6421,351.7819 2770.0029,351.9313 Q2769.3638,352.0807 2768.6582,352.0807 Q2766.1514,352.0807 2764.8315,350.4289 Q2763.5117,348.777 2763.5117,345.6559 Q2763.5117,342.5265 2764.8315,340.8747 Q2766.1514,339.2228 2768.6582,339.2228 Q2769.3638,339.2228 2770.0112,339.3722 Q2770.6587,339.5216 2771.2231,339.8205 L2771.2231,342.5431 Q2770.5923,341.9621 2769.9988,341.6923 Q2769.4053,341.4225 2768.7744,341.4225 Q2767.4297,341.4225 2766.7449,342.4892 Q2766.0601,343.5558 2766.0601,345.6559 Q2766.0601,347.7477 2766.7449,348.8144 Q2767.4297,349.881 2768.7744,349.881 Q2769.4053,349.881 2769.9988,349.6112 Q2770.5923,349.3415 2771.2231,348.7604 Z " fill="#000000"/><text fill="#000000" font-family="sans-serif" font-size="14" lengthAdjust="spacing" textLength="48" x="2789.25" y="350.631">Mundo</text><line style="stroke:#181818;stroke-width:0.5;" x1="2450" x2="3144" y1="361.34" y2="361.34"/><line style="stroke:#181818;stroke-width:0.5;" x1="2450" x2="3144" y1="369.34" y2="369.34"/><ellipse cx="2460" cy="383.0841" fill="#84BE84" rx="3" ry="3" style="stroke:#038048;stroke-width:1.0;"/><text fill="#000000" font-family="sans-serif" font-size="14" lengthAdjust="spacing" textLength="670" x="2469" y="386.8752">Mundo(gameWindowSettings:GameWindowSettings, nativeWindowSettings:NativeWindowSettings)</text></g><!--MD5=[d0074d293e9645ff4ed5f25f47c5773b]
class GameWindow--><g id="elem_GameWindow"><rect fill="#F1F1F1" height="48" id="GameWindow" rx="2.5" ry="2.5" style="stroke:#181818;stroke-width:0.5;" width="125" x="2734.5" y="105.93"/><ellipse cx="2749.5" cy="121.93" fill="#ADD1B2" rx="11" ry="11" style="stroke:#181818;stroke-width:1.0;"/><path d="M2751.9731,128.0731 Q2751.3921,128.3719 2750.7529,128.5213 Q2750.1138,128.6707 2749.4082,128.6707 Q2746.9014,128.6707 2745.5815,127.0189 Q2744.2617,125.367 2744.2617,122.2459 Q2744.2617,119.1165 2745.5815,117.4647 Q2746.9014,115.8128 2749.4082,115.8128 Q2750.1138,115.8128 2750.7612,115.9622 Q2751.4087,116.1116 2751.9731,116.4105 L2751.9731,119.1331 Q2751.3423,118.5521 2750.7488,118.2823 Q2750.1553,118.0125 2749.5244,118.0125 Q2748.1797,118.0125 2747.4949,119.0792 Q2746.8101,120.1458 2746.8101,122.2459 Q2746.8101,124.3377 2747.4949,125.4044 Q2748.1797,126.471 2749.5244,126.471 Q2750.1553,126.471 2750.7488,126.2012 Q2751.3423,125.9315 2751.9731,125.3504 Z " fill="#000000"/><text fill="#000000" font-family="sans-serif" font-size="14" lengthAdjust="spacing" textLength="93" x="2763.5" y="127.221">GameWindow</text><line style="stroke:#181818;stroke-width:0.5;" x1="2735.5" x2="2858.5" y1="137.93" y2="137.93"/><line style="stroke:#181818;stroke-width:0.5;" x1="2735.5" x2="2858.5" y1="145.93" y2="145.93"/></g><!--MD5=[b6968d6f0311dc2ba07018bef6e7bfd3]
class Retangulo--><g id="elem_Retangulo"><rect codeLine="1" fill="#F1F1F1" height="80.9766" id="Retangulo" rx="2.5" ry="2.5" style="stroke:#181818;stroke-width:0.5;" width="566" x="548" y="321.1"/><ellipse cx="791.75" cy="337.1" fill="#ADD1B2" rx="11" ry="11" style="stroke:#181818;stroke-width:1.0;"/><path d="M794.2231,343.2431 Q793.6421,343.5419 793.0029,343.6913 Q792.3638,343.8407 791.6582,343.8407 Q789.1514,343.8407 787.8315,342.1889 Q786.5117,340.537 786.5117,337.4159 Q786.5117,334.2865 787.8315,332.6347 Q789.1514,330.9828 791.6582,330.9828 Q792.3638,330.9828 793.0112,331.1322 Q793.6587,331.2816 794.2231,331.5805 L794.2231,334.3031 Q793.5923,333.7221 792.9988,333.4523 Q792.4053,333.1825 791.7744,333.1825 Q790.4297,333.1825 789.7449,334.2492 Q789.0601,335.3158 789.0601,337.4159 Q789.0601,339.5077 789.7449,340.5744 Q790.4297,341.641 791.7744,341.641 Q792.4053,341.641 792.9988,341.3712 Q793.5923,341.1015 794.2231,340.5204 Z " fill="#000000"/><text fill="#000000" font-family="sans-serif" font-size="14" lengthAdjust="spacing" textLength="70" x="812.25" y="342.391">Retangulo</text><line style="stroke:#181818;stroke-width:0.5;" x1="549" x2="1113" y1="353.1" y2="353.1"/><line style="stroke:#181818;stroke-width:0.5;" x1="549" x2="1113" y1="361.1" y2="361.1"/><ellipse cx="559" cy="374.8441" fill="#84BE84" rx="3" ry="3" style="stroke:#038048;stroke-width:1.0;"/><text fill="#000000" font-family="sans-serif" font-size="14" lengthAdjust="spacing" textLength="540" x="568" y="378.6352">Retangulo(paiRef:Objeto, _rotulo:char, ptoInfEsq:Ponto4D, ptoSupDir:Ponto4D)</text><ellipse cx="559" cy="391.3324" fill="#84BE84" rx="3" ry="3" style="stroke:#038048;stroke-width:1.0;"/><text fill="#000000" font-family="sans-serif" font-size="14" lengthAdjust="spacing" textLength="196" x="568" y="395.1234">«override» ToString() : string</text></g><!--MD5=[38e8fced9e943fac45fdba9ac5db991f]
class PrimitiveType--><g id="elem_PrimitiveType"><rect fill="#F1F1F1" height="48" id="PrimitiveType" rx="2.5" ry="2.5" style="stroke:#181818;stroke-width:0.5;" width="124" x="1173" y="337.59"/><ellipse cx="1188" cy="353.59" fill="#ADD1B2" rx="11" ry="11" style="stroke:#181818;stroke-width:1.0;"/><path d="M1190.4731,359.7331 Q1189.8921,360.0319 1189.2529,360.1813 Q1188.6138,360.3307 1187.9082,360.3307 Q1185.4014,360.3307 1184.0815,358.6789 Q1182.7617,357.027 1182.7617,353.9059 Q1182.7617,350.7765 1184.0815,349.1247 Q1185.4014,347.4728 1187.9082,347.4728 Q1188.6138,347.4728 1189.2612,347.6222 Q1189.9087,347.7716 1190.4731,348.0705 L1190.4731,350.7931 Q1189.8423,350.2121 1189.2488,349.9423 Q1188.6553,349.6725 1188.0244,349.6725 Q1186.6797,349.6725 1185.9949,350.7392 Q1185.3101,351.8058 1185.3101,353.9059 Q1185.3101,355.9977 1185.9949,357.0644 Q1186.6797,358.131 1188.0244,358.131 Q1188.6553,358.131 1189.2488,357.8612 Q1189.8423,357.5915 1190.4731,357.0104 Z " fill="#000000"/><text fill="#000000" font-family="sans-serif" font-size="14" lengthAdjust="spacing" textLength="92" x="1202" y="358.881">PrimitiveType</text><line style="stroke:#181818;stroke-width:0.5;" x1="1174" x2="1296" y1="369.59" y2="369.59"/><line style="stroke:#181818;stroke-width:0.5;" x1="1174" x2="1296" y1="377.59" y2="377.59"/></g><!--MD5=[03b04ed89c1f7ac76f6e629bfb39a406]
class Shader--><g id="elem_Shader"><rect fill="#F1F1F1" height="48" id="Shader" rx="2.5" ry="2.5" style="stroke:#181818;stroke-width:0.5;" width="80" x="1380" y="337.59"/><ellipse cx="1395" cy="353.59" fill="#ADD1B2" rx="11" ry="11" style="stroke:#181818;stroke-width:1.0;"/><path d="M1397.4731,359.7331 Q1396.8921,360.0319 1396.2529,360.1813 Q1395.6138,360.3307 1394.9082,360.3307 Q1392.4014,360.3307 1391.0815,358.6789 Q1389.7617,357.027 1389.7617,353.9059 Q1389.7617,350.7765 1391.0815,349.1247 Q1392.4014,347.4728 1394.9082,347.4728 Q1395.6138,347.4728 1396.2612,347.6222 Q1396.9087,347.7716 1397.4731,348.0705 L1397.4731,350.7931 Q1396.8423,350.2121 1396.2488,349.9423 Q1395.6553,349.6725 1395.0244,349.6725 Q1393.6797,349.6725 1392.9949,350.7392 Q1392.3101,351.8058 1392.3101,353.9059 Q1392.3101,355.9977 1392.9949,357.0644 Q1393.6797,358.131 1395.0244,358.131 Q1395.6553,358.131 1396.2488,357.8612 Q1396.8423,357.5915 1397.4731,357.0104 Z " fill="#000000"/><text fill="#000000" font-family="sans-serif" font-size="14" lengthAdjust="spacing" textLength="48" x="1409" y="358.881">Shader</text><line style="stroke:#181818;stroke-width:0.5;" x1="1381" x2="1459" y1="369.59" y2="369.59"/><line style="stroke:#181818;stroke-width:0.5;" x1="1381" x2="1459" y1="377.59" y2="377.59"/></g><!--MD5=[554a48e4b96ab0ce4473fbb3aea24bfd]
class Ponto--><g id="elem_Ponto"><rect codeLine="1" fill="#F1F1F1" height="97.4648" id="Ponto" rx="2.5" ry="2.5" style="stroke:#181818;stroke-width:0.5;" width="354" x="1519" y="312.86"/><ellipse cx="1671.75" cy="328.86" fill="#ADD1B2" rx="11" ry="11" style="stroke:#181818;stroke-width:1.0;"/><path d="M1674.2231,335.0031 Q1673.6421,335.3019 1673.0029,335.4513 Q1672.3638,335.6007 1671.6582,335.6007 Q1669.1514,335.6007 1667.8315,333.9489 Q1666.5117,332.297 1666.5117,329.1759 Q1666.5117,326.0465 1667.8315,324.3947 Q1669.1514,322.7428 1671.6582,322.7428 Q1672.3638,322.7428 1673.0112,322.8922 Q1673.6587,323.0416 1674.2231,323.3405 L1674.2231,326.0631 Q1673.5923,325.4821 1672.9988,325.2123 Q1672.4053,324.9425 1671.7744,324.9425 Q1670.4297,324.9425 1669.7449,326.0092 Q1669.0601,327.0758 1669.0601,329.1759 Q1669.0601,331.2677 1669.7449,332.3344 Q1670.4297,333.401 1671.7744,333.401 Q1672.4053,333.401 1672.9988,333.1312 Q1673.5923,332.8615 1674.2231,332.2804 Z " fill="#000000"/><text fill="#000000" font-family="sans-serif" font-size="14" lengthAdjust="spacing" textLength="40" x="1692.25" y="334.151">Ponto</text><line style="stroke:#181818;stroke-width:0.5;" x1="1520" x2="1872" y1="344.86" y2="344.86"/><line style="stroke:#181818;stroke-width:0.5;" x1="1520" x2="1872" y1="352.86" y2="352.86"/><ellipse cx="1530" cy="366.6041" fill="#84BE84" rx="3" ry="3" style="stroke:#038048;stroke-width:1.0;"/><text fill="#000000" font-family="sans-serif" font-size="14" lengthAdjust="spacing" textLength="328" x="1539" y="370.3952">Ponto(paiRef:Objeto, _rotulo:char, pto:Ponto4D)</text><ellipse cx="1530" cy="383.0924" fill="#84BE84" rx="3" ry="3" style="stroke:#038048;stroke-width:1.0;"/><text fill="#000000" font-family="sans-serif" font-size="14" lengthAdjust="spacing" textLength="113" x="1539" y="386.8834">Atualizar() : void</text><ellipse cx="1530" cy="399.5807" fill="#84BE84" rx="3" ry="3" style="stroke:#038048;stroke-width:1.0;"/><text fill="#000000" font-family="sans-serif" font-size="14" lengthAdjust="spacing" textLength="196" x="1539" y="403.3717">«override» ToString() : string</text></g><!--MD5=[56c49a27cf5acac56dd0df2a89b67cf4]
class SegReta--><g id="elem_SegReta"><rect codeLine="1" fill="#F1F1F1" height="80.9766" id="SegReta" rx="2.5" ry="2.5" style="stroke:#181818;stroke-width:0.5;" width="505" x="1908.5" y="321.1"/><ellipse cx="2129.25" cy="337.1" fill="#ADD1B2" rx="11" ry="11" style="stroke:#181818;stroke-width:1.0;"/><path d="M2131.7231,343.2431 Q2131.1421,343.5419 2130.5029,343.6913 Q2129.8638,343.8407 2129.1582,343.8407 Q2126.6514,343.8407 2125.3315,342.1889 Q2124.0117,340.537 2124.0117,337.4159 Q2124.0117,334.2865 2125.3315,332.6347 Q2126.6514,330.9828 2129.1582,330.9828 Q2129.8638,330.9828 2130.5112,331.1322 Q2131.1587,331.2816 2131.7231,331.5805 L2131.7231,334.3031 Q2131.0923,333.7221 2130.4988,333.4523 Q2129.9053,333.1825 2129.2744,333.1825 Q2127.9297,333.1825 2127.2449,334.2492 Q2126.5601,335.3158 2126.5601,337.4159 Q2126.5601,339.5077 2127.2449,340.5744 Q2127.9297,341.641 2129.2744,341.641 Q2129.9053,341.641 2130.4988,341.3712 Q2131.0923,341.1015 2131.7231,340.5204 Z " fill="#000000"/><text fill="#000000" font-family="sans-serif" font-size="14" lengthAdjust="spacing" textLength="55" x="2149.75" y="342.391">SegReta</text><line style="stroke:#181818;stroke-width:0.5;" x1="1909.5" x2="2412.5" y1="353.1" y2="353.1"/><line style="stroke:#181818;stroke-width:0.5;" x1="1909.5" x2="2412.5" y1="361.1" y2="361.1"/><ellipse cx="1919.5" cy="374.8441" fill="#84BE84" rx="3" ry="3" style="stroke:#038048;stroke-width:1.0;"/><text fill="#000000" font-family="sans-serif" font-size="14" lengthAdjust="spacing" textLength="479" x="1928.5" y="378.6352">SegReta(paiRef:Objeto, _rotulo:char, ptoIni:Ponto4D, ptoFim:Ponto4D)</text><ellipse cx="1919.5" cy="391.3324" fill="#84BE84" rx="3" ry="3" style="stroke:#038048;stroke-width:1.0;"/><text fill="#000000" font-family="sans-serif" font-size="14" lengthAdjust="spacing" textLength="196" x="1928.5" y="395.1234">«override» ToString() : string</text></g><!--MD5=[175f95e045c1a44aed0b30df3abe0e5c]
class Program--><g id="elem_Program"><rect codeLine="1" fill="#F1F1F1" height="56.6211" id="Program" rx="2.5" ry="2.5" style="stroke:#181818;stroke-width:0.5;" width="91" x="2894.5" y="101.61"/><ellipse cx="2909.5" cy="121.9205" fill="#ADD1B2" rx="11" ry="11" style="stroke:#181818;stroke-width:1.0;"/><path d="M2911.9731,128.0636 Q2911.3921,128.3624 2910.7529,128.5119 Q2910.1138,128.6613 2909.4082,128.6613 Q2906.9014,128.6613 2905.5815,127.0094 Q2904.2617,125.3576 2904.2617,122.2365 Q2904.2617,119.1071 2905.5815,117.4552 Q2906.9014,115.8034 2909.4082,115.8034 Q2910.1138,115.8034 2910.7612,115.9528 Q2911.4087,116.1022 2911.9731,116.401 L2911.9731,119.1237 Q2911.3423,118.5426 2910.7488,118.2728 Q2910.1553,118.0031 2909.5244,118.0031 Q2908.1797,118.0031 2907.4949,119.0697 Q2906.8101,120.1364 2906.8101,122.2365 Q2906.8101,124.3283 2907.4949,125.3949 Q2908.1797,126.4616 2909.5244,126.4616 Q2910.1553,126.4616 2910.7488,126.1918 Q2911.3423,125.922 2911.9731,125.341 Z " fill="#000000"/><text fill="#000000" font-family="sans-serif" font-size="12" font-style="italic" lengthAdjust="spacing" textLength="42" x="2932" y="118.2116">«static»</text><text fill="#000000" font-family="sans-serif" font-size="14" lengthAdjust="spacing" textLength="59" x="2923.5" y="134.278">Program</text><line style="stroke:#181818;stroke-width:0.5;" x1="2895.5" x2="2984.5" y1="142.2311" y2="142.2311"/><line style="stroke:#181818;stroke-width:0.5;" x1="2895.5" x2="2984.5" y1="150.2311" y2="150.2311"/></g><!--MD5=[a1c8620f95353152e80f8a42e3d2472d]
reverse link Objeto to Poligono--><g id="link_Objeto_Poligono"><path codeLine="5" d="M1106.39,178.58 C910.94,220.61 629.38,281.16 445.58,320.68 " fill="none" id="Objeto-backto-Poligono" style="stroke:#181818;stroke-width:1.0;"/><polygon fill="none" points="1104.78,171.55,1125.8,174.19,1107.72,185.24,1104.78,171.55" style="stroke:#181818;stroke-width:1.0;"/></g><!--MD5=[3c0e7ba23ee97378347dee0d1da8e8b4]
reverse link GameWindow to Mundo--><g id="link_GameWindow_Mundo"><path codeLine="4" d="M2797,175.04 C2797,220.08 2797,288.9 2797,328.84 " fill="none" id="GameWindow-backto-Mundo" style="stroke:#181818;stroke-width:1.0;"/><polygon fill="none" points="2790,175.21,2797,155.21,2804,175.21,2790,175.21" style="stroke:#181818;stroke-width:1.0;"/></g><!--MD5=[59fe4be1ba2cbe3a5ab439d91d8ac599]
reverse link Objeto to Retangulo--><g id="link_Objeto_Retangulo"><path codeLine="5" d="M1107.66,232.74 C1040.3,263.87 970.15,296.29 917.34,320.69 " fill="none" id="Objeto-backto-Retangulo" style="stroke:#181818;stroke-width:1.0;"/><polygon fill="none" points="1104.48,226.04,1125.57,224.01,1110.35,238.75,1104.48,226.04" style="stroke:#181818;stroke-width:1.0;"/></g><!--MD5=[7e8630a5cd5ea67eab064634d547f460]
link Objeto to PrimitiveType--><g id="link_Objeto_PrimitiveType"><path codeLine="15" d="M1278.5,253.15 C1266.45,282.92 1254.67,312.02 1246.41,332.41 " fill="none" id="Objeto-to-PrimitiveType" style="stroke:#181818;stroke-width:1.0;"/><polygon fill="#181818" points="1244.18,336.93,1251.2727,330.0967,1246.0615,332.2975,1243.8607,327.0863,1244.18,336.93" style="stroke:#181818;stroke-width:1.0;"/><text fill="#000000" font-family="sans-serif" font-size="13" lengthAdjust="spacing" textLength="83" x="1258.4338" y="326.7783">PrimitivaTipo</text></g><!--MD5=[bb4a0933f4051d72c0c92a1c7a10fb5f]
link Objeto to Shader--><g id="link_Objeto_Shader"><path codeLine="16" d="M1376.96,253.15 C1388.89,282.92 1400.54,312.02 1408.71,332.41 " fill="none" id="Objeto-to-Shader" style="stroke:#181818;stroke-width:1.0;"/><polygon fill="#181818" points="1410.92,336.93,1411.2914,327.0881,1409.063,332.2876,1403.8636,330.0593,1410.92,336.93" style="stroke:#181818;stroke-width:1.0;"/><text fill="#000000" font-family="sans-serif" font-size="13" lengthAdjust="spacing" textLength="64" x="1335.3663" y="326.7783">shaderCor</text></g><!--MD5=[6d6aa3a4321a60a7b3b34b37993619b5]
reverse link Objeto to Ponto--><g id="link_Objeto_Ponto"><path codeLine="6" d="M1541.77,264.33 C1569.2,281.45 1595.72,298 1618.8,312.41 " fill="none" id="Objeto-backto-Ponto" style="stroke:#181818;stroke-width:1.0;"/><polygon fill="none" points="1538.38,269.85,1525.12,253.32,1545.79,257.97,1538.38,269.85" style="stroke:#181818;stroke-width:1.0;"/></g><!--MD5=[89ea03af5646cf4d317248fe5750e5c6]
reverse link Objeto to SegReta--><g id="link_Objeto_SegReta"><path codeLine="5" d="M1549.49,191.99 C1697.34,232.75 1887.53,285.19 2016.25,320.68 " fill="none" id="Objeto-backto-SegReta" style="stroke:#181818;stroke-width:1.0;"/><polygon fill="none" points="1547.8,198.51,1530.38,186.45,1551.52,185.01,1547.8,198.51" style="stroke:#181818;stroke-width:1.0;"/></g><!--MD5=[78ccf048d807b8d508afa1744e8a3198]
@startuml
!include ./Poligono.puml
!include ./Mundo.puml
!include ./Retangulo.puml
!include ./Objeto.puml
!include ./Ponto.puml
!include ./SegReta.puml
!include ./Program.puml
!include ./obj/Debug/net7.0/.NETCoreApp,Version=v7.0.AssemblyAttributes.puml
!include ./obj/Debug/net7.0/CG_N2_Exemplo.AssemblyInfo.puml
@enduml

@startuml
class Poligono {
    + Poligono(paiRef:Objeto, _rotulo:char, pontosPoligono:List<Ponto4D>)
    + <<override>> ToString() : string
}
Objeto <|- - Poligono
class Mundo {
    + Mundo(gameWindowSettings:GameWindowSettings, nativeWindowSettings:NativeWindowSettings)
}
GameWindow <|- - Mundo
class Retangulo {
    + Retangulo(paiRef:Objeto, _rotulo:char, ptoInfEsq:Ponto4D, ptoSupDir:Ponto4D)
    + <<override>> ToString() : string
}
Objeto <|- - Retangulo
class Objeto {
    + PrimitivaTamanho : float <<get>> <<set>>
    + Bbox() : BBox
    + Objeto(paiRef:Objeto, _rotulo:char, objetoFilho:Objeto)
    + ObjetoAtualizar() : void
    + Desenhar() : void
    + FilhoAdicionar(filho:Objeto) : void
    + PontosId(id:int) : Ponto4D
    + PontosAdicionar(pto:Ponto4D) : void
    + PontosAlterar(pto:Ponto4D, posicao:int) : void
    + GrafocenaBusca(_rotulo:char) : Objeto
    + GrafocenaImprimir(idt:String) : void
    + OnUnload() : void
}
Objeto - -> "PrimitivaTipo" PrimitiveType
Objeto - -> "shaderCor" Shader
class Ponto {
    + Ponto(paiRef:Objeto, _rotulo:char, pto:Ponto4D)
    + Atualizar() : void
    + <<override>> ToString() : string
}
Objeto <|- - Ponto
class SegReta {
    + SegReta(paiRef:Objeto, _rotulo:char, ptoIni:Ponto4D, ptoFim:Ponto4D)
    + <<override>> ToString() : string
}
Objeto <|- - SegReta
class Program <<static>> {
}
@enduml

PlantUML version 1.2022.7(Mon Aug 22 14:01:30 BRT 2022)
(GPL source distribution)
Java Runtime: OpenJDK Runtime Environment
JVM: OpenJDK 64-Bit Server VM
Default Encoding: UTF-8
Language: en
Country: BR
--></g></svg>